<svg xmlns="http://www.w3.org/2000/svg" xmlns:xlink="http://www.w3.org/1999/xlink" width="1920" zoomAndPan="magnify" viewBox="0 0 1440 809.999993" height="1080" preserveAspectRatio="xMidYMid meet" version="1.0"><defs><g/></defs><g fill="#38b6ff" fill-opacity="1"><g transform="translate(386.463356, 333.49158)"><g><path d="M 49.351562 0 C 51.003906 0 51.621094 -1.03125 50.898438 -2.375 L 32.210938 -44.085938 L 49.765625 -80.117188 C 50.488281 -81.5625 49.867188 -82.597656 48.320312 -82.597656 L 37.476562 -82.597656 C 36.34375 -82.597656 35.621094 -82.078125 35.101562 -81.046875 L 19.203125 -48.523438 L 19.203125 -80.53125 C 19.203125 -81.875 18.480469 -82.597656 17.136719 -82.597656 L 7.226562 -82.597656 C 5.886719 -82.597656 5.164062 -81.875 5.164062 -80.53125 L 5.164062 -2.066406 C 5.164062 -0.722656 5.886719 0 7.226562 0 L 17.136719 0 C 18.480469 0 19.203125 -0.722656 19.203125 -2.066406 L 19.203125 -24.882812 L 23.023438 -32.210938 L 36.03125 -1.546875 C 36.445312 -0.515625 37.167969 0 38.40625 0 Z M 49.351562 0 "/></g></g></g><g fill="#38b6ff" fill-opacity="1"><g transform="translate(443.861253, 333.49158)"><g><path d="M 46.355469 -80.945312 C 46.355469 -81.976562 45.945312 -82.597656 44.703125 -82.597656 L 6.710938 -82.597656 C 5.78125 -82.597656 5.164062 -81.976562 5.164062 -80.945312 L 5.164062 -1.652344 C 5.164062 -0.621094 5.78125 0 6.710938 0 L 44.703125 0 C 45.945312 0 46.355469 -0.621094 46.355469 -1.652344 L 46.355469 -11.976562 C 46.355469 -13.113281 45.945312 -13.628906 44.703125 -13.628906 L 18.894531 -13.628906 L 18.894531 -34.484375 L 38.613281 -34.484375 C 39.644531 -34.484375 40.265625 -35.101562 40.265625 -36.238281 L 40.265625 -46.460938 C 40.265625 -47.597656 39.644531 -48.214844 38.613281 -48.214844 L 18.894531 -48.214844 L 18.894531 -68.863281 L 44.703125 -68.863281 C 45.945312 -68.863281 46.355469 -69.585938 46.355469 -70.621094 Z M 46.355469 -80.945312 "/></g></g></g><g fill="#38b6ff" fill-opacity="1"><g transform="translate(497.439533, 333.49158)"><g><path d="M 46.355469 -80.945312 C 46.355469 -81.976562 45.945312 -82.597656 44.703125 -82.597656 L 6.710938 -82.597656 C 5.78125 -82.597656 5.164062 -81.976562 5.164062 -80.945312 L 5.164062 -1.652344 C 5.164062 -0.621094 5.78125 0 6.710938 0 L 44.703125 0 C 45.945312 0 46.355469 -0.621094 46.355469 -1.652344 L 46.355469 -11.976562 C 46.355469 -13.113281 45.945312 -13.628906 44.703125 -13.628906 L 18.894531 -13.628906 L 18.894531 -34.484375 L 38.613281 -34.484375 C 39.644531 -34.484375 40.265625 -35.101562 40.265625 -36.238281 L 40.265625 -46.460938 C 40.265625 -47.597656 39.644531 -48.214844 38.613281 -48.214844 L 18.894531 -48.214844 L 18.894531 -68.863281 L 44.703125 -68.863281 C 45.945312 -68.863281 46.355469 -69.585938 46.355469 -70.621094 Z M 46.355469 -80.945312 "/></g></g></g><g fill="#38b6ff" fill-opacity="1"><g transform="translate(551.017816, 333.49158)"><g><path d="M 5.164062 -1.652344 C 5.164062 -0.621094 5.78125 0 6.8125 0 L 17.550781 0 C 18.6875 0 19.203125 -0.621094 19.203125 -1.652344 L 19.203125 -27.667969 L 31.59375 -27.667969 C 41.296875 -27.667969 46.460938 -32.933594 46.460938 -42.535156 L 46.460938 -67.730469 C 46.460938 -77.433594 41.296875 -82.597656 31.59375 -82.597656 L 6.8125 -82.597656 C 5.78125 -82.597656 5.164062 -81.976562 5.164062 -80.945312 Z M 19.203125 -41.296875 L 19.203125 -68.96875 L 28.289062 -68.96875 C 31.078125 -68.96875 32.417969 -67.523438 32.417969 -64.835938 L 32.417969 -45.425781 C 32.417969 -42.847656 31.078125 -41.296875 28.289062 -41.296875 Z M 19.203125 -41.296875 "/></g></g></g><g fill="#38b6ff" fill-opacity="1"><g transform="translate(604.69932, 333.49158)"><g/></g></g><g fill="#38b6ff" fill-opacity="1"><g transform="translate(632.572589, 333.49158)"><g><path d="M 48.320312 -82.597656 C 47.078125 -82.597656 46.355469 -81.976562 46.046875 -80.738281 L 34.585938 -29.320312 L 23.125 -80.738281 C 22.816406 -81.976562 22.09375 -82.597656 20.855469 -82.597656 L 7.226562 -82.597656 C 5.886719 -82.597656 5.164062 -81.875 5.164062 -80.53125 L 5.164062 -2.066406 C 5.164062 -0.722656 5.886719 0 7.226562 0 L 16.726562 0 C 18.066406 0 18.789062 -0.722656 18.789062 -2.066406 L 18.789062 -48.523438 L 19.511719 -48.523438 L 29.734375 -1.859375 C 30.042969 -0.621094 30.765625 0 32.007812 0 L 37.066406 0 C 38.304688 0 39.027344 -0.621094 39.335938 -1.859375 L 49.558594 -48.523438 L 50.28125 -48.523438 L 50.28125 -2.066406 C 50.28125 -0.722656 51.003906 0 52.34375 0 L 61.945312 0 C 63.289062 0 64.011719 -0.722656 64.011719 -2.066406 L 64.011719 -80.53125 C 64.011719 -81.875 63.289062 -82.597656 61.945312 -82.597656 Z M 48.320312 -82.597656 "/></g></g></g><g fill="#38b6ff" fill-opacity="1"><g transform="translate(703.803712, 333.49158)"><g><path d="M 5.164062 -14.867188 C 5.164062 -5.164062 10.324219 0 20.03125 0 L 31.59375 0 C 41.296875 0 46.460938 -5.164062 46.460938 -14.867188 L 46.460938 -67.730469 C 46.460938 -77.433594 41.296875 -82.597656 31.59375 -82.597656 L 20.03125 -82.597656 C 10.324219 -82.597656 5.164062 -77.433594 5.164062 -67.730469 Z M 23.023438 -13.320312 C 20.339844 -13.320312 18.894531 -14.660156 18.894531 -17.449219 L 18.894531 -65.148438 C 18.894531 -67.832031 20.339844 -69.277344 23.023438 -69.277344 L 29.011719 -69.277344 C 31.695312 -69.277344 33.140625 -67.832031 33.140625 -65.148438 L 33.140625 -17.449219 C 33.140625 -14.660156 31.695312 -13.320312 29.011719 -13.320312 Z M 23.023438 -13.320312 "/></g></g></g><g fill="#38b6ff" fill-opacity="1"><g transform="translate(757.485231, 333.49158)"><g><path d="M 41.195312 -82.597656 C 39.957031 -82.597656 39.234375 -81.976562 38.921875 -80.738281 L 27.980469 -25.398438 L 17.136719 -80.738281 C 16.828125 -81.976562 16.105469 -82.597656 14.867188 -82.597656 L 5.058594 -82.597656 C 3.511719 -82.597656 2.890625 -81.769531 3.199219 -80.324219 L 20.546875 -1.859375 C 20.855469 -0.621094 21.578125 0 22.816406 0 L 33.140625 0 C 34.378906 0 35.101562 -0.621094 35.414062 -1.859375 L 52.863281 -80.324219 C 53.171875 -81.769531 52.550781 -82.597656 51.003906 -82.597656 Z M 41.195312 -82.597656 "/></g></g></g><g fill="#38b6ff" fill-opacity="1"><g transform="translate(815.60575, 333.49158)"><g><path d="M 6.8125 -82.597656 C 5.679688 -82.597656 5.164062 -81.976562 5.164062 -80.945312 L 5.164062 -1.652344 C 5.164062 -0.621094 5.679688 0 6.8125 0 L 17.550781 0 C 18.585938 0 19.203125 -0.621094 19.203125 -1.652344 L 19.203125 -80.945312 C 19.203125 -81.976562 18.585938 -82.597656 17.550781 -82.597656 Z M 6.8125 -82.597656 "/></g></g></g><g fill="#38b6ff" fill-opacity="1"><g transform="translate(842.033751, 333.49158)"><g><path d="M 36.859375 -82.597656 C 35.722656 -82.597656 35.207031 -81.976562 35.207031 -80.945312 L 35.207031 -37.375 L 34.585938 -37.375 L 18.894531 -81.253906 C 18.585938 -82.183594 17.964844 -82.597656 17.035156 -82.597656 L 6.8125 -82.597656 C 5.78125 -82.597656 5.164062 -81.976562 5.164062 -80.945312 L 5.164062 -1.652344 C 5.164062 -0.621094 5.78125 0 6.8125 0 L 17.550781 0 C 18.6875 0 19.203125 -0.621094 19.203125 -1.652344 L 19.203125 -45.425781 L 19.71875 -45.425781 L 35.515625 -1.34375 C 35.824219 -0.414062 36.445312 0 37.375 0 L 47.597656 0 C 48.628906 0 49.246094 -0.621094 49.246094 -1.652344 L 49.246094 -80.945312 C 49.246094 -81.976562 48.628906 -82.597656 47.597656 -82.597656 Z M 36.859375 -82.597656 "/></g></g></g><g fill="#38b6ff" fill-opacity="1"><g transform="translate(898.502562, 333.49158)"><g><path d="M 5.164062 -14.867188 C 5.164062 -5.164062 10.324219 0 20.03125 0 L 33.65625 0 C 43.257812 0 48.523438 -5.164062 48.523438 -14.867188 L 48.523438 -43.570312 C 48.523438 -44.703125 47.90625 -45.222656 46.875 -45.222656 L 29.527344 -45.222656 C 28.390625 -45.222656 27.875 -44.703125 27.875 -43.570312 L 27.875 -33.246094 C 27.875 -32.210938 28.390625 -31.59375 29.527344 -31.59375 L 34.898438 -31.59375 L 34.898438 -17.757812 C 34.898438 -14.96875 33.453125 -13.628906 30.765625 -13.628906 L 23.332031 -13.628906 C 20.648438 -13.628906 19.203125 -14.96875 19.203125 -17.757812 L 19.203125 -64.835938 C 19.203125 -67.523438 20.546875 -68.96875 23.332031 -68.96875 L 30.765625 -68.96875 C 33.453125 -68.96875 34.898438 -67.523438 34.898438 -64.835938 L 34.898438 -56.992188 C 34.898438 -55.957031 35.414062 -55.339844 36.546875 -55.339844 L 46.875 -55.339844 C 47.90625 -55.339844 48.523438 -55.957031 48.523438 -56.992188 L 48.523438 -67.730469 C 48.523438 -77.433594 43.257812 -82.597656 33.65625 -82.597656 L 20.03125 -82.597656 C 10.324219 -82.597656 5.164062 -77.433594 5.164062 -67.730469 Z M 5.164062 -14.867188 "/></g></g></g><g fill="#38b6ff" fill-opacity="1"><g transform="translate(954.248763, 333.49158)"><g/></g></g><g fill="#38b6ff" fill-opacity="1"><g transform="translate(982.122046, 333.49158)"><g><path d="M 46.460938 -80.945312 C 46.460938 -81.976562 45.839844 -82.597656 44.808594 -82.597656 L 6.8125 -82.597656 C 5.679688 -82.597656 5.164062 -81.976562 5.164062 -80.945312 L 5.164062 -1.652344 C 5.164062 -0.621094 5.679688 0 6.8125 0 L 17.550781 0 C 18.585938 0 19.203125 -0.621094 19.203125 -1.652344 L 19.203125 -34.585938 L 38.613281 -34.585938 C 39.644531 -34.585938 40.265625 -35.101562 40.265625 -36.238281 L 40.265625 -46.5625 C 40.265625 -47.597656 39.644531 -48.214844 38.613281 -48.214844 L 19.203125 -48.214844 L 19.203125 -68.96875 L 44.808594 -68.96875 C 45.839844 -68.96875 46.460938 -69.585938 46.460938 -70.621094 Z M 46.460938 -80.945312 "/></g></g></g><g fill="#38b6ff" fill-opacity="1"><g transform="translate(1035.803565, 333.49158)"><g><path d="M 5.164062 -14.867188 C 5.164062 -5.164062 10.324219 0 20.03125 0 L 31.59375 0 C 41.296875 0 46.460938 -5.164062 46.460938 -14.867188 L 46.460938 -67.730469 C 46.460938 -77.433594 41.296875 -82.597656 31.59375 -82.597656 L 20.03125 -82.597656 C 10.324219 -82.597656 5.164062 -77.433594 5.164062 -67.730469 Z M 23.023438 -13.320312 C 20.339844 -13.320312 18.894531 -14.660156 18.894531 -17.449219 L 18.894531 -65.148438 C 18.894531 -67.832031 20.339844 -69.277344 23.023438 -69.277344 L 29.011719 -69.277344 C 31.695312 -69.277344 33.140625 -67.832031 33.140625 -65.148438 L 33.140625 -17.449219 C 33.140625 -14.660156 31.695312 -13.320312 29.011719 -13.320312 Z M 23.023438 -13.320312 "/></g></g></g><g fill="#38b6ff" fill-opacity="1"><g transform="translate(1089.485084, 333.49158)"><g><path d="M 47.597656 -67.730469 C 47.597656 -77.433594 42.433594 -82.597656 32.730469 -82.597656 L 6.8125 -82.597656 C 5.78125 -82.597656 5.164062 -81.976562 5.164062 -80.945312 L 5.164062 -1.652344 C 5.164062 -0.621094 5.78125 0 6.8125 0 L 17.550781 0 C 18.585938 0 19.203125 -0.621094 19.203125 -1.652344 L 19.203125 -27.667969 L 26.328125 -27.667969 L 33.246094 -1.445312 C 33.453125 -0.515625 33.96875 0 35 0 L 45.738281 0 C 46.875 0 47.492188 -0.621094 47.183594 -1.859375 L 40.058594 -28.910156 C 45.015625 -31.078125 47.597656 -35.621094 47.597656 -42.535156 Z M 19.203125 -41.296875 L 19.203125 -68.96875 L 29.425781 -68.96875 C 32.109375 -68.96875 33.554688 -67.523438 33.554688 -64.835938 L 33.554688 -45.425781 C 33.554688 -42.742188 32.109375 -41.296875 29.425781 -41.296875 Z M 19.203125 -41.296875 "/></g></g></g><g fill="#38b6ff" fill-opacity="1"><g transform="translate(1144.302156, 333.49158)"><g><path d="M 61.636719 -82.597656 C 60.398438 -82.597656 59.574219 -81.875 59.46875 -80.632812 L 55.234375 -32.316406 L 54.71875 -32.316406 L 44.601562 -80.738281 C 44.292969 -81.976562 43.570312 -82.597656 42.332031 -82.597656 L 36.136719 -82.597656 C 34.898438 -82.597656 34.175781 -81.976562 33.863281 -80.738281 L 23.644531 -32.316406 L 23.125 -32.316406 L 19.101562 -80.632812 C 18.996094 -81.875 18.171875 -82.597656 16.933594 -82.597656 L 7.125 -82.597656 C 5.78125 -82.597656 5.058594 -81.769531 5.164062 -80.425781 L 13.628906 -1.960938 C 13.730469 -0.621094 14.453125 0 15.796875 0 L 26.121094 0 C 27.359375 0 28.082031 -0.621094 28.390625 -1.753906 L 39.234375 -48.523438 L 49.96875 -1.859375 C 50.28125 -0.621094 51.003906 0 52.242188 0 L 62.359375 0 C 63.703125 0 64.425781 -0.621094 64.527344 -1.960938 L 73.40625 -80.425781 C 73.511719 -81.769531 72.789062 -82.597656 71.445312 -82.597656 Z M 61.636719 -82.597656 "/></g></g></g><g fill="#38b6ff" fill-opacity="1"><g transform="translate(1224.927465, 333.49158)"><g><path d="M 54.925781 0 C 56.164062 0 56.578125 -0.621094 56.371094 -1.753906 L 39.234375 -81.152344 C 39.027344 -82.183594 38.40625 -82.597656 37.476562 -82.597656 L 23.125 -82.597656 C 22.199219 -82.597656 21.578125 -82.183594 21.371094 -81.152344 L 4.234375 -1.753906 C 3.921875 -0.621094 4.441406 0 5.574219 0 L 16.621094 0 C 17.550781 0 18.066406 -0.515625 18.273438 -1.445312 L 21.0625 -16.519531 L 39.441406 -16.519531 L 42.332031 -1.445312 C 42.535156 -0.515625 43.054688 0 43.980469 0 Z M 36.859375 -28.496094 L 23.644531 -28.496094 L 30.25 -64.527344 Z M 36.859375 -28.496094 "/></g></g></g><g fill="#38b6ff" fill-opacity="1"><g transform="translate(1287.486983, 333.49158)"><g><path d="M 47.597656 -67.730469 C 47.597656 -77.433594 42.433594 -82.597656 32.730469 -82.597656 L 6.8125 -82.597656 C 5.78125 -82.597656 5.164062 -81.976562 5.164062 -80.945312 L 5.164062 -1.652344 C 5.164062 -0.621094 5.78125 0 6.8125 0 L 17.550781 0 C 18.585938 0 19.203125 -0.621094 19.203125 -1.652344 L 19.203125 -27.667969 L 26.328125 -27.667969 L 33.246094 -1.445312 C 33.453125 -0.515625 33.96875 0 35 0 L 45.738281 0 C 46.875 0 47.492188 -0.621094 47.183594 -1.859375 L 40.058594 -28.910156 C 45.015625 -31.078125 47.597656 -35.621094 47.597656 -42.535156 Z M 19.203125 -41.296875 L 19.203125 -68.96875 L 29.425781 -68.96875 C 32.109375 -68.96875 33.554688 -67.523438 33.554688 -64.835938 L 33.554688 -45.425781 C 33.554688 -42.742188 32.109375 -41.296875 29.425781 -41.296875 Z M 19.203125 -41.296875 "/></g></g></g><g fill="#38b6ff" fill-opacity="1"><g transform="translate(1342.304055, 333.49158)"><g><path d="M 5.164062 -1.652344 C 5.164062 -0.515625 5.679688 0 6.8125 0 L 31.59375 0 C 41.296875 0 46.460938 -5.164062 46.460938 -14.867188 L 46.460938 -67.625 C 46.460938 -77.332031 41.296875 -82.597656 31.59375 -82.597656 L 6.8125 -82.597656 C 5.679688 -82.597656 5.164062 -81.976562 5.164062 -80.945312 Z M 19.203125 -13.628906 L 19.203125 -68.96875 L 28.703125 -68.96875 C 31.386719 -68.96875 32.832031 -67.523438 32.832031 -64.734375 L 32.832031 -17.757812 C 32.832031 -14.96875 31.386719 -13.628906 28.703125 -13.628906 Z M 19.203125 -13.628906 "/></g></g></g></svg>